<?xml version="1.0" encoding="utf-8"?><svg xmlns="http://www.w3.org/2000/svg" xmlns:xlink="http://www.w3.org/1999/xlink"><symbol viewBox="0 0 45 45" id="fb" xmlns="http://www.w3.org/2000/svg"><path fill-rule="evenodd" clip-rule="evenodd" d="M22.5 43C33.822 43 43 33.822 43 22.5S33.822 2 22.5 2 2 11.178 2 22.5 11.178 43 22.5 43Zm0 2C34.926 45 45 34.926 45 22.5S34.926 0 22.5 0 0 10.074 0 22.5 10.074 45 22.5 45Z"/><path d="M27 13.004 24.405 13c-2.914 0-4.797 1.932-4.797 4.922v2.27h-2.608a.408.408 0 0 0-.407.407v3.288c0 .226.182.408.407.408h2.608v8.297c0 .226.183.408.408.408h3.402a.408.408 0 0 0 .408-.408v-8.297h3.049a.408.408 0 0 0 .408-.408l.001-3.288a.408.408 0 0 0-.408-.408h-3.05v-1.923c0-.925.22-1.394 1.425-1.394l1.747-.001a.408.408 0 0 0 .408-.408v-3.053a.408.408 0 0 0-.408-.408Z"/></symbol><symbol viewBox="0 0 45 45" id="instagram" xmlns="http://www.w3.org/2000/svg"><path fill-rule="evenodd" clip-rule="evenodd" d="M22.5 43C33.822 43 43 33.822 43 22.5S33.822 2 22.5 2 2 11.178 2 22.5 11.178 43 22.5 43Zm0 2C34.926 45 45 34.926 45 22.5S34.926 0 22.5 0 0 10.074 0 22.5 10.074 45 22.5 45Z"/><path d="M26.125 12h-8.25A6.876 6.876 0 0 0 11 18.875v8.25A6.876 6.876 0 0 0 17.875 34h8.25A6.876 6.876 0 0 0 33 27.125v-8.25A6.876 6.876 0 0 0 26.125 12Zm4.813 15.125a4.818 4.818 0 0 1-4.813 4.813h-8.25a4.818 4.818 0 0 1-4.813-4.813v-8.25a4.818 4.818 0 0 1 4.813-4.813h8.25a4.818 4.818 0 0 1 4.813 4.813v8.25Z"/><path d="M22 17.5a5.5 5.5 0 1 0 0 11 5.5 5.5 0 0 0 0-11Zm0 8.938A3.442 3.442 0 0 1 18.562 23 3.441 3.441 0 0 1 22 19.562 3.441 3.441 0 0 1 25.438 23 3.442 3.442 0 0 1 22 26.438Z"/><path d="M27.913 17.82a.733.733 0 1 0 0-1.465.733.733 0 0 0 0 1.465Z" fill="#66C05D"/></symbol><symbol viewBox="0 0 45 45" id="vk" xmlns="http://www.w3.org/2000/svg"><path fill-rule="evenodd" clip-rule="evenodd" d="M22.5 43C33.822 43 43 33.822 43 22.5S33.822 2 22.5 2 2 11.178 2 22.5 11.178 43 22.5 43Zm0 2C34.926 45 45 34.926 45 22.5S34.926 0 22.5 0 0 10.074 0 22.5 10.074 45 22.5 45Z"/><path d="M35.895 28.547a1.776 1.776 0 0 0-.095-.172c-.487-.821-1.417-1.83-2.79-3.025l-.028-.027-.015-.014-.014-.013h-.015c-.623-.557-1.017-.931-1.183-1.123-.302-.365-.37-.735-.204-1.109.116-.283.555-.88 1.314-1.793.399-.484.715-.871.949-1.163 1.684-2.1 2.414-3.44 2.19-4.025l-.087-.136c-.059-.082-.21-.158-.452-.226-.244-.069-.555-.08-.935-.034l-4.205.027a.58.58 0 0 0-.292.007l-.19.041-.073.034-.058.041a.637.637 0 0 0-.161.144.926.926 0 0 0-.146.24 21.765 21.765 0 0 1-1.562 3.08c-.36.565-.691 1.056-.993 1.47-.302.416-.555.722-.76.918-.204.196-.389.353-.554.472-.166.119-.292.17-.38.15l-.248-.054a.936.936 0 0 1-.329-.335 1.432 1.432 0 0 1-.168-.534 5.54 5.54 0 0 1-.05-.555 10.89 10.89 0 0 1 .007-.657c.01-.283.014-.474.014-.575 0-.346.008-.723.022-1.129l.037-.965c.01-.237.014-.488.014-.753s-.017-.472-.05-.623a2.033 2.033 0 0 0-.154-.438.754.754 0 0 0-.3-.328 1.753 1.753 0 0 0-.488-.185c-.516-.11-1.173-.169-1.972-.178-1.81-.018-2.973.091-3.49.329-.204.1-.389.237-.554.41-.175.2-.2.31-.073.329.584.082.998.278 1.24.588l.089.165c.068.118.136.328.204.63.068.3.112.633.131.998a9.988 9.988 0 0 1 0 1.711c-.048.475-.094.844-.138 1.11-.044.264-.11.478-.197.642a2.67 2.67 0 0 1-.176.301.244.244 0 0 1-.073.069 1.157 1.157 0 0 1-.394.069c-.136 0-.302-.064-.496-.192a3.432 3.432 0 0 1-.606-.527 7.08 7.08 0 0 1-.708-.938 16.059 16.059 0 0 1-.818-1.424l-.234-.396a33.36 33.36 0 0 1-.598-1.116c-.253-.488-.477-.96-.672-1.417a.911.911 0 0 0-.35-.438l-.073-.041a1.026 1.026 0 0 0-.234-.117 1.633 1.633 0 0 0-.336-.088l-4 .027c-.41 0-.687.087-.833.26l-.058.082a.42.42 0 0 0-.044.22c0 .1.03.223.088.369a44.014 44.014 0 0 0 1.905 3.723c.686 1.195 1.282 2.159 1.788 2.888.507.73 1.023 1.42 1.548 2.067.526.648.874 1.063 1.044 1.246.17.183.305.32.402.41l.365.329c.233.219.577.481 1.03.787.452.306.953.607 1.503.904.55.296 1.19.538 1.92.725a7.06 7.06 0 0 0 2.132.226h1.68c.34-.028.598-.128.773-.301l.058-.069a.88.88 0 0 0 .11-.253 1.31 1.31 0 0 0 .05-.376c-.01-.393.023-.746.095-1.061.073-.315.156-.552.249-.712.093-.16.197-.294.314-.403.116-.11.2-.176.248-.199.049-.023.088-.038.117-.048.233-.073.508-.002.825.212.316.215.613.48.89.794.278.315.611.669 1 1.061.39.393.73.684 1.023.876l.292.165c.195.11.448.21.76.3.31.092.583.115.817.07l3.738-.055c.37 0 .657-.058.86-.172.205-.114.327-.24.366-.376a.997.997 0 0 0 .007-.466 1.633 1.633 0 0 0-.102-.362Z"/></symbol><symbol viewBox="0 0 45 45" id="youtube" xmlns="http://www.w3.org/2000/svg"><path fill-rule="evenodd" clip-rule="evenodd" d="M22.5 43C33.822 43 43 33.822 43 22.5S33.822 2 22.5 2 2 11.178 2 22.5 11.178 43 22.5 43Zm0 2C34.926 45 45 34.926 45 22.5S34.926 0 22.5 0 0 10.074 0 22.5 10.074 45 22.5 45Z"/><path d="M28.43 15H15.57C13.045 15 11 16.971 11 19.402v6.195C11 28.03 13.046 30 15.57 30h12.86c2.524 0 4.57-1.971 4.57-4.402v-6.195C33 16.97 30.954 15 28.43 15Zm-3.09 7.801-6.015 2.765c-.16.074-.345-.039-.345-.21v-5.702c0-.174.19-.286.35-.208l6.016 2.938a.229.229 0 0 1-.005.417Z"/></symbol></svg>