<svg width="140" height="140" viewBox="0 0 140 140" fill="none" xmlns="http://www.w3.org/2000/svg">
<path d="M29.569 86.7886C24.1379 86.7886 19.9137 90.7723 19.9137 95.8943C19.9137 101.016 24.1379 105 29.569 105C35 105 39.2242 101.016 39.2242 95.8943C39.2242 90.7723 35 86.7886 29.569 86.7886ZM86.8966 35H82.0691V46.0975H100.173L86.8966 35ZM0.603394 97.6016H12.6724C12.6724 97.6016 13.2758 80.5284 30.7758 80.5284C43.75 80.5284 45.8621 97.6016 45.8621 97.6016H76.0346V35H0L0.603394 97.6016ZM114.655 86.7886C109.224 86.7886 105 90.7723 105 95.8943C105 101.016 109.224 105 114.655 105C120.086 105 124.31 101.016 124.31 95.8943C124.31 90.7723 119.785 86.7886 114.655 86.7886ZM103.19 49.2276H82.0691V97.6016H100.173C100.173 97.6016 97.7587 83.374 115.259 83.374C128.535 83.374 128.233 97.6016 128.233 97.6016H139.397L140 76.2602L103.19 49.2276ZM100.173 86.2195H88.1036V80.5284H100.173V86.2195ZM98.9656 75.9756L86.8966 69.1463V53.2114H98.9656L130.345 75.9756H98.9656Z" fill="white" fill-opacity="0.4"/>
</svg>
