<svg width="140" height="140" fill="none" xmlns="http://www.w3.org/2000/svg"><path d="M29.569 86.789c-5.431 0-9.655 3.983-9.655 9.105S24.138 105 29.569 105c5.431 0 9.655-3.984 9.655-9.106S35 86.79 29.57 86.79ZM86.897 35h-4.828v11.097h18.104L86.897 35ZM.603 97.602h12.07s.603-17.074 18.103-17.074c12.974 0 15.086 17.074 15.086 17.074h30.173V35H0l.603 62.602Zm114.052-10.813c-5.431 0-9.655 3.983-9.655 9.105s4.224 9.106 9.655 9.106c5.431 0 9.655-3.984 9.655-9.106s-4.525-9.105-9.655-9.105ZM103.19 49.228H82.07v48.374h18.103s-2.414-14.228 15.086-14.228c13.276 0 12.974 14.228 12.974 14.228h11.164L140 76.26l-36.81-27.032Zm-3.017 36.991h-12.07v-5.69h12.07v5.69Zm-1.207-10.243-12.07-6.83V53.211h12.07l31.379 22.765h-31.38Z" fill="#fff" fill-opacity=".4"/></svg>