<svg width="45" height="45" viewBox="0 0 45 45" fill="none" xmlns="http://www.w3.org/2000/svg">
<path fill-rule="evenodd" clip-rule="evenodd" d="M22.5 43C33.8218 43 43 33.8218 43 22.5C43 11.1782 33.8218 2 22.5 2C11.1782 2 2 11.1782 2 22.5C2 33.8218 11.1782 43 22.5 43ZM22.5 45C34.9264 45 45 34.9264 45 22.5C45 10.0736 34.9264 0 22.5 0C10.0736 0 0 10.0736 0 22.5C0 34.9264 10.0736 45 22.5 45Z" fill="#66C05D"/>
<path d="M26.125 12H17.875C14.0786 12 11 15.0786 11 18.875V27.125C11 30.9214 14.0786 34 17.875 34H26.125C29.9214 34 33 30.9214 33 27.125V18.875C33 15.0786 29.9214 12 26.125 12ZM30.9375 27.125C30.9375 29.7787 28.7787 31.9375 26.125 31.9375H17.875C15.2213 31.9375 13.0625 29.7787 13.0625 27.125V18.875C13.0625 16.2213 15.2213 14.0625 17.875 14.0625H26.125C28.7787 14.0625 30.9375 16.2213 30.9375 18.875V27.125Z" fill="#66C05D"/>
<path d="M22 17.5C18.9626 17.5 16.5 19.9626 16.5 23C16.5 26.0374 18.9626 28.5 22 28.5C25.0374 28.5 27.5 26.0374 27.5 23C27.5 19.9626 25.0374 17.5 22 17.5ZM22 26.4375C20.1053 26.4375 18.5625 24.8947 18.5625 23C18.5625 21.1039 20.1053 19.5625 22 19.5625C23.8947 19.5625 25.4375 21.1039 25.4375 23C25.4375 24.8947 23.8947 26.4375 22 26.4375Z" fill="#66C05D"/>
<path d="M27.9125 17.8204C28.3172 17.8204 28.6454 17.4923 28.6454 17.0875C28.6454 16.6828 28.3172 16.3547 27.9125 16.3547C27.5077 16.3547 27.1796 16.6828 27.1796 17.0875C27.1796 17.4923 27.5077 17.8204 27.9125 17.8204Z" fill="#66C05D"/>
</svg>
