<svg width="45" height="45" viewBox="0 0 45 45" fill="none" xmlns="http://www.w3.org/2000/svg">
<path fill-rule="evenodd" clip-rule="evenodd" d="M22.5 43C33.8218 43 43 33.8218 43 22.5C43 11.1782 33.8218 2 22.5 2C11.1782 2 2 11.1782 2 22.5C2 33.8218 11.1782 43 22.5 43ZM22.5 45C34.9264 45 45 34.9264 45 22.5C45 10.0736 34.9264 0 22.5 0C10.0736 0 0 10.0736 0 22.5C0 34.9264 10.0736 45 22.5 45Z" fill="#66C05D"/>
<path d="M28.4309 15H15.5691C13.0457 15 11 16.9711 11 19.4025V25.5975C11 28.0289 13.0457 30 15.5691 30H28.4309C30.9543 30 33 28.0289 33 25.5975V19.4025C33 16.9711 30.9543 15 28.4309 15ZM25.3408 22.8014L19.325 25.566C19.1647 25.6396 18.9795 25.527 18.9795 25.3559V19.654C18.9795 19.4805 19.1695 19.368 19.3302 19.4464L25.346 22.3838C25.5249 22.4711 25.5218 22.7183 25.3408 22.8014Z" fill="#66C05D"/>
</svg>
